<svg width="1200" height="780" viewBox="0 0 1200 780" fill="none" xmlns="http://www.w3.org/2000/svg">
  <rect width="1200" height="780" rx="28" fill="#ECF4FF"/>
  <rect x="42" y="42" width="1116" height="696" rx="24" fill="#F8FBFF" stroke="#CBD9ED"/>

  <text x="104" y="136" font-family="Segoe UI, Noto Sans, sans-serif" font-size="56" fill="#11243F" font-weight="700">Export Reports</text>
  <text x="104" y="182" font-family="Segoe UI, Noto Sans, sans-serif" font-size="30" fill="#597290">Daily, weekly, monthly records with local-only generation.</text>

  <rect x="104" y="238" width="184" height="60" rx="14" fill="#D8F6E7" stroke="#89DEC4"/>
  <text x="152" y="278" font-family="Segoe UI, Noto Sans, sans-serif" font-size="30" fill="#155F4C" font-weight="700">Daily</text>

  <rect x="304" y="238" width="184" height="60" rx="14" fill="#FFFFFF" stroke="#C9D7EC"/>
  <text x="347" y="278" font-family="Segoe UI, Noto Sans, sans-serif" font-size="30" fill="#4B6688" font-weight="700">Weekly</text>

  <rect x="504" y="238" width="184" height="60" rx="14" fill="#FFFFFF" stroke="#C9D7EC"/>
  <text x="546" y="278" font-family="Segoe UI, Noto Sans, sans-serif" font-size="30" fill="#4B6688" font-weight="700">Monthly</text>

  <rect x="104" y="330" width="200" height="66" rx="16" fill="#FFFFFF" stroke="#C9D7EC"/>
  <text x="146" y="374" font-family="Segoe UI, Noto Sans, sans-serif" font-size="32" fill="#355578" font-weight="700">Export CSV</text>

  <rect x="320" y="330" width="292" height="66" rx="16" fill="#4AE091"/>
  <text x="360" y="374" font-family="Segoe UI, Noto Sans, sans-serif" font-size="32" fill="#0B2D1A" font-weight="700">Export Heatmap PNG</text>

  <rect x="104" y="436" width="996" height="256" rx="18" fill="#FFFFFF" stroke="#CAD8EB"/>
  <text x="136" y="484" font-family="Segoe UI, Noto Sans, sans-serif" font-size="34" fill="#1A324F" font-weight="700">Latest export output</text>

  <rect x="136" y="514" width="932" height="52" rx="12" fill="#F3F8FF" stroke="#CBD9ED"/>
  <text x="156" y="548" font-family="Consolas, 'Courier New', monospace" font-size="24" fill="#2D537C">C:\Users\YourName\Downloads\upstand_24h_heatmap_20260215_1940.png</text>

  <rect x="136" y="588" width="932" height="80" rx="12" fill="#F8FCFF" stroke="#D6E2F1"/>
  <text x="156" y="636" font-family="Segoe UI, Noto Sans, sans-serif" font-size="28" fill="#5A7292">Click path to reveal in folder and verify files before sharing.</text>
</svg>
